<svg xmlns="http://www.w3.org/2000/svg" width="1600" height="1000" viewBox="0 0 1600 1000">
<rect width="1600" height="1000" fill="#efece4"/><rect x="30" y="30" width="750" height="940" rx="8" fill="#dde8df" stroke="#243b30" stroke-width="8"/><rect x="820" y="30" width="750" height="940" rx="8" fill="#e5dfcd" stroke="#243b30" stroke-width="8"/>
<path d="M50 750L500 420 780 700V950H50Z" fill="#a6c1ac"/><path d="M840 420L1120 180 1550 420V950H840Z" fill="#c4b894"/>
<circle cx="360" cy="530" r="90" fill="#faf7ee" stroke="#243b30" stroke-width="8"/><path d="M240 810Q230 620 360 620Q490 620 490 810" fill="#557a61" stroke="#243b30" stroke-width="8"/><path d="M320 520h18m45 0h18m-70 45q30 30 60 0" fill="none" stroke="#243b30" stroke-width="8"/>
<circle cx="1240" cy="355" r="85" fill="#faf7ee" stroke="#243b30" stroke-width="8"/><path d="M1120 570Q1110 445 1240 445Q1370 445 1370 570" fill="#9b744a" stroke="#243b30" stroke-width="8"/><path d="M1200 350h18m45 0h18m-70 40q30 25 60 0" fill="none" stroke="#243b30" stroke-width="8"/>
<rect x="140" y="95" width="560" height="230" rx="70" fill="white" stroke="#243b30" stroke-width="7"/><path d="M400 325l-20 80 100-80" fill="white" stroke="#243b30" stroke-width="7"/><text x="420" y="182" text-anchor="middle" font-family="sans-serif" font-size="43" fill="#243b30"><tspan x="420">HELLO, FRIEND!</tspan><tspan x="420" dy="64">LET'S READ TOGETHER.</tspan></text>
<rect x="890" y="555" width="590" height="230" rx="70" fill="white" stroke="#243b30" stroke-width="7"/><path d="M1250 555l-25-65-50 65" fill="white" stroke="#243b30" stroke-width="7"/><text x="1185" y="642" text-anchor="middle" font-family="sans-serif" font-size="43" fill="#243b30"><tspan x="1185">A NEW WORLD</tspan><tspan x="1185" dy="64">IS WAITING FOR US.</tspan></text>
</svg>
